<?xml version="1.0" encoding="UTF-8" standalone="no"?>
<!-- Created with Inkscape (http://www.inkscape.org/) -->

<svg
   xmlns:dc="http://purl.org/dc/elements/1.1/"
   xmlns:cc="http://creativecommons.org/ns#"
   xmlns:rdf="http://www.w3.org/1999/02/22-rdf-syntax-ns#"
   xmlns:svg="http://www.w3.org/2000/svg"
   xmlns="http://www.w3.org/2000/svg"
   xmlns:sodipodi="http://sodipodi.sourceforge.net/DTD/sodipodi-0.dtd"
   xmlns:inkscape="http://www.inkscape.org/namespaces/inkscape"
   width="316.52319"
   height="193.41264"
   id="svg2"
   version="1.1"
   inkscape:version="0.48.3.1 r9886"
   sodipodi:docname="Grid.svg">
  <defs
     id="defs4" />
  <sodipodi:namedview
     id="base"
     pagecolor="#ffffff"
     bordercolor="#666666"
     borderopacity="1.0"
     inkscape:pageopacity="0.0"
     inkscape:pageshadow="2"
     inkscape:zoom="1.4"
     inkscape:cx="316.77908"
     inkscape:cy="108.08116"
     inkscape:document-units="px"
     inkscape:current-layer="layer1"
     showgrid="false"
     inkscape:window-width="1680"
     inkscape:window-height="974"
     inkscape:window-x="0"
     inkscape:window-y="24"
     inkscape:window-maximized="1"
     fit-margin-top="5"
     fit-margin-left="5"
     fit-margin-right="5"
     fit-margin-bottom="5" />
  <metadata
     id="metadata7">
    <rdf:RDF>
      <cc:Work
         rdf:about="">
        <dc:format>image/svg+xml</dc:format>
        <dc:type
           rdf:resource="http://purl.org/dc/dcmitype/StillImage" />
        <dc:title></dc:title>
      </cc:Work>
    </rdf:RDF>
  </metadata>
  <g
     inkscape:label="Calque 1"
     inkscape:groupmode="layer"
     id="layer1"
     transform="translate(-161.40584,-181.39552)">
    <path
       sodipodi:type="arc"
       style="fill:#3809ff;fill-opacity:1;stroke:#cccccc;stroke-width:0.047;stroke-miterlimit:4;stroke-opacity:1;stroke-dasharray:none"
       id="path4118"
       sodipodi:cx="78.53936"
       sodipodi:cy="188.42921"
       sodipodi:rx="4.2931485"
       sodipodi:ry="4.2931485"
       d="m 82.832509,188.42921 c 0,2.37104 -1.922108,4.29315 -4.293149,4.29315 -2.37104,0 -4.293148,-1.92211 -4.293148,-4.29315 0,-2.37104 1.922108,-4.29314 4.293148,-4.29314 2.371041,0 4.293149,1.9221 4.293149,4.29314 z"
       transform="translate(105.05586,17.172593)" />
    <path
       sodipodi:type="arc"
       style="fill:#3809ff;fill-opacity:1;stroke:#cccccc;stroke-width:0.047;stroke-miterlimit:4;stroke-opacity:1;stroke-dasharray:none"
       id="path4118-6"
       sodipodi:cx="78.53936"
       sodipodi:cy="188.42921"
       sodipodi:rx="4.2931485"
       sodipodi:ry="4.2931485"
       d="m 82.832509,188.42921 c 0,2.37104 -1.922108,4.29315 -4.293149,4.29315 -2.37104,0 -4.293148,-1.92211 -4.293148,-4.29315 0,-2.37104 1.922108,-4.29314 4.293148,-4.29314 2.371041,0 4.293149,1.9221 4.293149,4.29314 z"
       transform="translate(145.20943,17.930211)" />
    <path
       sodipodi:type="arc"
       style="fill:#3809ff;fill-opacity:1;stroke:#cccccc;stroke-width:0.047;stroke-miterlimit:4;stroke-opacity:1;stroke-dasharray:none"
       id="path4118-5"
       sodipodi:cx="78.53936"
       sodipodi:cy="188.42921"
       sodipodi:rx="4.2931485"
       sodipodi:ry="4.2931485"
       d="m 82.832509,188.42921 c 0,2.37104 -1.922108,4.29315 -4.293149,4.29315 -2.37104,0 -4.293148,-1.92211 -4.293148,-4.29315 0,-2.37104 1.922108,-4.29314 4.293148,-4.29314 2.371041,0 4.293149,1.9221 4.293149,4.29314 z"
       transform="translate(192.18152,17.930211)" />
    <path
       sodipodi:type="arc"
       style="fill:#3809ff;fill-opacity:1;stroke:#cccccc;stroke-width:0.047;stroke-miterlimit:4;stroke-opacity:1;stroke-dasharray:none"
       id="path4118-1"
       sodipodi:cx="78.53936"
       sodipodi:cy="188.42921"
       sodipodi:rx="4.2931485"
       sodipodi:ry="4.2931485"
       d="m 82.832509,188.42921 c 0,2.37104 -1.922108,4.29315 -4.293149,4.29315 -2.37104,0 -4.293148,-1.92211 -4.293148,-4.29315 0,-2.37104 1.922108,-4.29314 4.293148,-4.29314 2.371041,0 4.293149,1.9221 4.293149,4.29314 z"
       transform="translate(239.15362,17.425135)" />
    <path
       sodipodi:type="arc"
       style="fill:#3809ff;fill-opacity:1;stroke:#cccccc;stroke-width:0.047;stroke-miterlimit:4;stroke-opacity:1;stroke-dasharray:none"
       id="path4118-8"
       sodipodi:cx="78.53936"
       sodipodi:cy="188.42921"
       sodipodi:rx="4.2931485"
       sodipodi:ry="4.2931485"
       d="m 82.832509,188.42921 c 0,2.37104 -1.922108,4.29315 -4.293149,4.29315 -2.37104,0 -4.293148,-1.92211 -4.293148,-4.29315 0,-2.37104 1.922108,-4.29314 4.293148,-4.29314 2.371041,0 4.293149,1.9221 4.293149,4.29314 z"
       transform="translate(285.11556,18.435287)" />
    <path
       sodipodi:type="arc"
       style="fill:#3809ff;fill-opacity:1;stroke:#cccccc;stroke-width:0.047;stroke-miterlimit:4;stroke-opacity:1;stroke-dasharray:none"
       id="path4118-9"
       sodipodi:cx="78.53936"
       sodipodi:cy="188.42921"
       sodipodi:rx="4.2931485"
       sodipodi:ry="4.2931485"
       d="m 82.832509,188.42921 c 0,2.37104 -1.922108,4.29315 -4.293149,4.29315 -2.37104,0 -4.293148,-1.92211 -4.293148,-4.29315 0,-2.37104 1.922108,-4.29314 4.293148,-4.29314 2.371041,0 4.293149,1.9221 4.293149,4.29314 z"
       transform="translate(329.56227,17.930211)" />
    <path
       sodipodi:type="arc"
       style="fill:#3809ff;fill-opacity:1;stroke:#cccccc;stroke-width:0.047;stroke-miterlimit:4;stroke-opacity:1;stroke-dasharray:none"
       id="path4118-7"
       sodipodi:cx="78.53936"
       sodipodi:cy="188.42921"
       sodipodi:rx="4.2931485"
       sodipodi:ry="4.2931485"
       d="m 82.832509,188.42921 c 0,2.37104 -1.922108,4.29315 -4.293149,4.29315 -2.37104,0 -4.293148,-1.92211 -4.293148,-4.29315 0,-2.37104 1.922108,-4.29314 4.293148,-4.29314 2.371041,0 4.293149,1.9221 4.293149,4.29314 z"
       transform="translate(378.55467,17.930211)" />
    <path
       style="fill:none;stroke:#000000;stroke-width:1.0162915px;stroke-linecap:butt;stroke-linejoin:miter;stroke-opacity:1"
       d="m 457.14286,206.6479 -272.85715,0 0,138.69679"
       id="path2985"
       inkscape:connector-curvature="0" />
    <path
       style="fill:none;stroke:#000000;stroke-width:1px;stroke-linecap:butt;stroke-linejoin:miter;stroke-opacity:1"
       d="m 451.03311,201.81374 6.06092,5.05076 -6.06092,5.05076"
       id="path2987"
       inkscape:connector-curvature="0" />
    <path
       style="fill:none;stroke:#000000;stroke-width:1px;stroke-linecap:butt;stroke-linejoin:miter;stroke-opacity:1"
       d="m 179.59794,337.71515 4.54569,7.07107 4.04061,-7.57614"
       id="path2989"
       inkscape:connector-curvature="0" />
    <text
       xml:space="preserve"
       style="font-size:20px;font-style:normal;font-weight:normal;line-height:125%;letter-spacing:0px;word-spacing:0px;fill:#000000;fill-opacity:1;stroke:none;font-family:Sans"
       x="469.24741"
       y="212.09474"
       id="text2991"
       sodipodi:linespacing="125%"><tspan
         sodipodi:role="line"
         id="tspan2993"
         x="469.24741"
         y="212.09474">i</tspan></text>
    <text
       xml:space="preserve"
       style="font-size:20px;font-style:normal;font-weight:normal;line-height:125%;letter-spacing:0px;word-spacing:0px;fill:#000000;fill-opacity:1;stroke:none;font-family:Sans"
       x="181.41338"
       y="365.64801"
       id="text2991-0"
       sodipodi:linespacing="125%"
       inkscape:transform-center-x="-5.3027344"><tspan
         sodipodi:role="line"
         id="tspan2993-5"
         x="181.41338"
         y="365.64801">j</tspan></text>
    <path
       style="fill:none;stroke:#cccccc;stroke-width:0.97067976px;stroke-linecap:butt;stroke-linejoin:miter;stroke-opacity:1"
       d="m 457.14286,206.29075 0,139.31385"
       id="path3035"
       inkscape:connector-curvature="0" />
    <path
       style="fill:none;stroke:#cccccc;stroke-width:1px;stroke-linecap:butt;stroke-linejoin:miter;stroke-opacity:1"
       d="m 183.21429,345.57647 274.28571,0"
       id="path3037"
       inkscape:connector-curvature="0" />
    <path
       style="fill:none;stroke:#000000;stroke-width:1px;stroke-linecap:butt;stroke-linejoin:miter;stroke-opacity:1"
       d="m 224.28572,203.43361 0,7.85714"
       id="path3807"
       inkscape:connector-curvature="0" />
    <path
       style="fill:none;stroke:#000000;stroke-width:1px;stroke-linecap:butt;stroke-linejoin:miter;stroke-opacity:1"
       d="m 271.42857,203.43361 0,7.85714"
       id="path3807-8"
       inkscape:connector-curvature="0" />
    <path
       style="fill:none;stroke:#000000;stroke-width:1px;stroke-linecap:butt;stroke-linejoin:miter;stroke-opacity:1"
       d="m 317.5,203.43361 0,7.85714"
       id="path3807-8-0"
       inkscape:connector-curvature="0" />
    <path
       style="fill:none;stroke:#000000;stroke-width:1px;stroke-linecap:butt;stroke-linejoin:miter;stroke-opacity:1"
       d="m 363.21428,202.71933 0,7.85714"
       id="path3807-8-9"
       inkscape:connector-curvature="0" />
    <path
       style="fill:none;stroke:#000000;stroke-width:1px;stroke-linecap:butt;stroke-linejoin:miter;stroke-opacity:1"
       d="m 407.85714,203.07647 0,7.85714"
       id="path3807-8-8"
       inkscape:connector-curvature="0" />
    <path
       style="fill:none;stroke:#000000;stroke-width:1px;stroke-linecap:butt;stroke-linejoin:miter;stroke-opacity:1"
       d="m 187.5,206.6479 -7.85714,0"
       id="path3807-7"
       inkscape:connector-curvature="0" />
    <path
       style="fill:none;stroke:#000000;stroke-width:1px;stroke-linecap:butt;stroke-linejoin:miter;stroke-opacity:1"
       d="m 187.5,253.79075 -7.85714,0"
       id="path3807-8-09"
       inkscape:connector-curvature="0" />
    <path
       style="fill:none;stroke:#000000;stroke-width:1px;stroke-linecap:butt;stroke-linejoin:miter;stroke-opacity:1"
       d="m 187.5,299.86218 -7.85714,0"
       id="path3807-8-0-1"
       inkscape:connector-curvature="0" />
    <path
       style="fill:none;stroke:#000000;stroke-width:1px;stroke-linecap:butt;stroke-linejoin:miter;stroke-opacity:1"
       d="m 188.21428,345.57646 -7.85714,0"
       id="path3807-8-9-2"
       inkscape:connector-curvature="0" />
    <path
       style="fill:none;stroke:#000000;stroke-width:1px;stroke-linecap:butt;stroke-linejoin:miter;stroke-opacity:1"
       d="m 183.92857,202.71933 0,7.85714"
       id="path3807-3"
       inkscape:connector-curvature="0" />
    <path
       style="fill:none;stroke:#cccccc;stroke-width:1px;stroke-linecap:butt;stroke-linejoin:miter;stroke-opacity:1"
       d="m 183.21429,299.50504 274.28571,0"
       id="path3037-1"
       inkscape:connector-curvature="0" />
    <path
       style="fill:none;stroke:#cccccc;stroke-width:1px;stroke-linecap:butt;stroke-linejoin:miter;stroke-opacity:1"
       d="m 185.35715,253.79075 274.28571,0"
       id="path3037-0"
       inkscape:connector-curvature="0" />
    <path
       style="fill:none;stroke:#cccccc;stroke-width:0.97067976px;stroke-linecap:butt;stroke-linejoin:miter;stroke-opacity:1"
       d="m 224.28572,207.34811 0,139.31385"
       id="path3035-8"
       inkscape:connector-curvature="0" />
    <path
       style="fill:none;stroke:#cccccc;stroke-width:0.97067976px;stroke-linecap:butt;stroke-linejoin:miter;stroke-opacity:1"
       d="m 271.07143,206.99097 0,139.31385"
       id="path3035-3"
       inkscape:connector-curvature="0" />
    <path
       style="fill:none;stroke:#cccccc;stroke-width:0.97067976px;stroke-linecap:butt;stroke-linejoin:miter;stroke-opacity:1"
       d="m 317.5,205.91954 0,139.31385"
       id="path3035-88"
       inkscape:connector-curvature="0" />
    <path
       style="fill:none;stroke:#cccccc;stroke-width:0.97067976px;stroke-linecap:butt;stroke-linejoin:miter;stroke-opacity:1"
       d="m 363.21428,205.56239 0,139.31385"
       id="path3035-9"
       inkscape:connector-curvature="0" />
    <path
       style="fill:none;stroke:#cccccc;stroke-width:0.97067976px;stroke-linecap:butt;stroke-linejoin:miter;stroke-opacity:1"
       d="m 408.21429,206.99097 0,139.31385"
       id="path3035-38"
       inkscape:connector-curvature="0" />
    <text
       xml:space="preserve"
       style="font-size:12px;font-style:normal;font-weight:normal;line-height:125%;letter-spacing:0px;word-spacing:0px;fill:#000000;fill-opacity:1;stroke:none;font-family:Sans"
       x="178.57143"
       y="197.71931"
       id="text3985"
       sodipodi:linespacing="125%"><tspan
         sodipodi:role="line"
         id="tspan3987"
         x="178.57143"
         y="197.71931">0</tspan></text>
    <text
       xml:space="preserve"
       style="font-size:12px;font-style:normal;font-weight:normal;line-height:125%;letter-spacing:0px;word-spacing:0px;fill:#000000;fill-opacity:1;stroke:none;font-family:Sans"
       x="220.47127"
       y="196.73035"
       id="text3985-5"
       sodipodi:linespacing="125%"><tspan
         sodipodi:role="line"
         id="tspan3987-7"
         x="220.47127"
         y="196.73035">1</tspan></text>
    <text
       xml:space="preserve"
       style="font-size:12px;font-style:normal;font-weight:normal;line-height:125%;letter-spacing:0px;word-spacing:0px;fill:#000000;fill-opacity:1;stroke:none;font-family:Sans"
       x="266.89981"
       y="195.65892"
       id="text3985-6"
       sodipodi:linespacing="125%"><tspan
         sodipodi:role="line"
         id="tspan3987-5"
         x="266.89981"
         y="195.65892">2</tspan></text>
    <text
       xml:space="preserve"
       style="font-size:12px;font-style:normal;font-weight:normal;line-height:125%;letter-spacing:0px;word-spacing:0px;fill:#000000;fill-opacity:1;stroke:none;font-family:Sans"
       x="312.61411"
       y="195.30177"
       id="text3985-7"
       sodipodi:linespacing="125%"><tspan
         sodipodi:role="line"
         id="tspan3987-53"
         x="312.61411"
         y="195.30177">3</tspan></text>
    <text
       xml:space="preserve"
       style="font-size:12px;font-style:normal;font-weight:normal;line-height:125%;letter-spacing:0px;word-spacing:0px;fill:#000000;fill-opacity:1;stroke:none;font-family:Sans"
       x="358.68555"
       y="196.01605"
       id="text3985-2"
       sodipodi:linespacing="125%"><tspan
         sodipodi:role="line"
         id="tspan3987-0"
         x="358.68555"
         y="196.01605">4</tspan></text>
    <text
       xml:space="preserve"
       style="font-size:12px;font-style:normal;font-weight:normal;line-height:125%;letter-spacing:0px;word-spacing:0px;fill:#000000;fill-opacity:1;stroke:none;font-family:Sans"
       x="403.68555"
       y="195.65892"
       id="text3985-4"
       sodipodi:linespacing="125%"><tspan
         sodipodi:role="line"
         id="tspan3987-6"
         x="403.68555"
         y="195.65892">5</tspan></text>
    <text
       xml:space="preserve"
       style="font-size:12px;font-style:normal;font-weight:normal;line-height:125%;letter-spacing:0px;word-spacing:0px;fill:#000000;fill-opacity:1;stroke:none;font-family:Sans"
       x="452.97125"
       y="196.37321"
       id="text3985-53"
       sodipodi:linespacing="125%"><tspan
         sodipodi:role="line"
         id="tspan3987-9"
         x="452.97125"
         y="196.37321">6</tspan></text>
    <text
       xml:space="preserve"
       style="font-size:12px;font-style:normal;font-weight:normal;line-height:125%;letter-spacing:0px;word-spacing:0px;fill:#000000;fill-opacity:1;stroke:none;font-family:Sans"
       x="167.61412"
       y="256.73035"
       id="text3985-1"
       sodipodi:linespacing="125%"><tspan
         sodipodi:role="line"
         id="tspan3987-3"
         x="167.61412"
         y="256.73035">1</tspan></text>
    <text
       xml:space="preserve"
       style="font-size:12px;font-style:normal;font-weight:normal;line-height:125%;letter-spacing:0px;word-spacing:0px;fill:#000000;fill-opacity:1;stroke:none;font-family:Sans"
       x="166.43428"
       y="302.4505"
       id="text3985-1-2"
       sodipodi:linespacing="125%"><tspan
         sodipodi:role="line"
         id="tspan3987-3-4"
         x="166.43428"
         y="302.4505">2</tspan></text>
    <text
       xml:space="preserve"
       style="font-size:12px;font-style:normal;font-weight:normal;line-height:125%;letter-spacing:0px;word-spacing:0px;fill:#000000;fill-opacity:1;stroke:none;font-family:Sans"
       x="165.49178"
       y="349.23035"
       id="text3985-7-7"
       sodipodi:linespacing="125%"><tspan
         sodipodi:role="line"
         id="tspan3987-53-4"
         x="165.49178"
         y="349.23035">3</tspan></text>
    <path
       sodipodi:type="arc"
       style="fill:#3809ff;fill-opacity:1;stroke:#cccccc;stroke-width:0.047;stroke-miterlimit:4;stroke-opacity:1;stroke-dasharray:none"
       id="path4118-88-0"
       sodipodi:cx="78.53936"
       sodipodi:cy="188.42921"
       sodipodi:rx="4.2931485"
       sodipodi:ry="4.2931485"
       d="m 82.832509,188.42921 c 0,2.37104 -1.922108,4.29315 -4.293149,4.29315 -2.37104,0 -4.293148,-1.92211 -4.293148,-4.29315 0,-2.37104 1.922108,-4.29314 4.293148,-4.29314 2.371041,0 4.293149,1.9221 4.293149,4.29314 z"
       transform="translate(104.92959,64.776028)" />
    <path
       sodipodi:type="arc"
       style="fill:#3809ff;fill-opacity:1;stroke:#cccccc;stroke-width:0.047;stroke-miterlimit:4;stroke-opacity:1;stroke-dasharray:none"
       id="path4118-6-4-1"
       sodipodi:cx="78.53936"
       sodipodi:cy="188.42921"
       sodipodi:rx="4.2931485"
       sodipodi:ry="4.2931485"
       d="m 82.832509,188.42921 c 0,2.37104 -1.922108,4.29315 -4.293149,4.29315 -2.37104,0 -4.293148,-1.92211 -4.293148,-4.29315 0,-2.37104 1.922108,-4.29314 4.293148,-4.29314 2.371041,0 4.293149,1.9221 4.293149,4.29314 z"
       transform="translate(145.08316,65.533648)" />
    <path
       sodipodi:type="arc"
       style="fill:#3809ff;fill-opacity:1;stroke:#cccccc;stroke-width:0.047;stroke-miterlimit:4;stroke-opacity:1;stroke-dasharray:none"
       id="path4118-5-8-4"
       sodipodi:cx="78.53936"
       sodipodi:cy="188.42921"
       sodipodi:rx="4.2931485"
       sodipodi:ry="4.2931485"
       d="m 82.832509,188.42921 c 0,2.37104 -1.922108,4.29315 -4.293149,4.29315 -2.37104,0 -4.293148,-1.92211 -4.293148,-4.29315 0,-2.37104 1.922108,-4.29314 4.293148,-4.29314 2.371041,0 4.293149,1.9221 4.293149,4.29314 z"
       transform="translate(192.05525,65.533648)" />
    <path
       sodipodi:type="arc"
       style="fill:#3809ff;fill-opacity:1;stroke:#cccccc;stroke-width:0.047;stroke-miterlimit:4;stroke-opacity:1;stroke-dasharray:none"
       id="path4118-1-7-9"
       sodipodi:cx="78.53936"
       sodipodi:cy="188.42921"
       sodipodi:rx="4.2931485"
       sodipodi:ry="4.2931485"
       d="m 82.832509,188.42921 c 0,2.37104 -1.922108,4.29315 -4.293149,4.29315 -2.37104,0 -4.293148,-1.92211 -4.293148,-4.29315 0,-2.37104 1.922108,-4.29314 4.293148,-4.29314 2.371041,0 4.293149,1.9221 4.293149,4.29314 z"
       transform="translate(239.02735,65.028578)" />
    <path
       sodipodi:type="arc"
       style="fill:#3809ff;fill-opacity:1;stroke:#cccccc;stroke-width:0.047;stroke-miterlimit:4;stroke-opacity:1;stroke-dasharray:none"
       id="path4118-8-1-2"
       sodipodi:cx="78.53936"
       sodipodi:cy="188.42921"
       sodipodi:rx="4.2931485"
       sodipodi:ry="4.2931485"
       d="m 82.832509,188.42921 c 0,2.37104 -1.922108,4.29315 -4.293149,4.29315 -2.37104,0 -4.293148,-1.92211 -4.293148,-4.29315 0,-2.37104 1.922108,-4.29314 4.293148,-4.29314 2.371041,0 4.293149,1.9221 4.293149,4.29314 z"
       transform="translate(284.9893,66.038728)" />
    <path
       sodipodi:type="arc"
       style="fill:#3809ff;fill-opacity:1;stroke:#cccccc;stroke-width:0.047;stroke-miterlimit:4;stroke-opacity:1;stroke-dasharray:none"
       id="path4118-9-3-5"
       sodipodi:cx="78.53936"
       sodipodi:cy="188.42921"
       sodipodi:rx="4.2931485"
       sodipodi:ry="4.2931485"
       d="m 82.832509,188.42921 c 0,2.37104 -1.922108,4.29315 -4.293149,4.29315 -2.37104,0 -4.293148,-1.92211 -4.293148,-4.29315 0,-2.37104 1.922108,-4.29314 4.293148,-4.29314 2.371041,0 4.293149,1.9221 4.293149,4.29314 z"
       transform="translate(329.43601,65.533648)" />
    <path
       sodipodi:type="arc"
       style="fill:#3809ff;fill-opacity:1;stroke:#cccccc;stroke-width:0.047;stroke-miterlimit:4;stroke-opacity:1;stroke-dasharray:none"
       id="path4118-7-8-1"
       sodipodi:cx="78.53936"
       sodipodi:cy="188.42921"
       sodipodi:rx="4.2931485"
       sodipodi:ry="4.2931485"
       d="m 82.832509,188.42921 c 0,2.37104 -1.922108,4.29315 -4.293149,4.29315 -2.37104,0 -4.293148,-1.92211 -4.293148,-4.29315 0,-2.37104 1.922108,-4.29314 4.293148,-4.29314 2.371041,0 4.293149,1.9221 4.293149,4.29314 z"
       transform="translate(378.42841,65.533648)" />
    <path
       sodipodi:type="arc"
       style="fill:#3809ff;fill-opacity:1;stroke:#cccccc;stroke-width:0.047;stroke-miterlimit:4;stroke-opacity:1;stroke-dasharray:none"
       id="path4118-88-8"
       sodipodi:cx="78.53936"
       sodipodi:cy="188.42921"
       sodipodi:rx="4.2931485"
       sodipodi:ry="4.2931485"
       d="m 82.832509,188.42921 c 0,2.37104 -1.922108,4.29315 -4.293149,4.29315 -2.37104,0 -4.293148,-1.92211 -4.293148,-4.29315 0,-2.37104 1.922108,-4.29314 4.293148,-4.29314 2.371041,0 4.293149,1.9221 4.293149,4.29314 z"
       transform="translate(104.92959,110.23289)" />
    <path
       sodipodi:type="arc"
       style="fill:#3809ff;fill-opacity:1;stroke:#cccccc;stroke-width:0.047;stroke-miterlimit:4;stroke-opacity:1;stroke-dasharray:none"
       id="path4118-6-4-0"
       sodipodi:cx="78.53936"
       sodipodi:cy="188.42921"
       sodipodi:rx="4.2931485"
       sodipodi:ry="4.2931485"
       d="m 82.832509,188.42921 c 0,2.37104 -1.922108,4.29315 -4.293149,4.29315 -2.37104,0 -4.293148,-1.92211 -4.293148,-4.29315 0,-2.37104 1.922108,-4.29314 4.293148,-4.29314 2.371041,0 4.293149,1.9221 4.293149,4.29314 z"
       transform="translate(145.08316,110.99051)" />
    <path
       sodipodi:type="arc"
       style="fill:#3809ff;fill-opacity:1;stroke:#cccccc;stroke-width:0.047;stroke-miterlimit:4;stroke-opacity:1;stroke-dasharray:none"
       id="path4118-5-8-8"
       sodipodi:cx="78.53936"
       sodipodi:cy="188.42921"
       sodipodi:rx="4.2931485"
       sodipodi:ry="4.2931485"
       d="m 82.832509,188.42921 c 0,2.37104 -1.922108,4.29315 -4.293149,4.29315 -2.37104,0 -4.293148,-1.92211 -4.293148,-4.29315 0,-2.37104 1.922108,-4.29314 4.293148,-4.29314 2.371041,0 4.293149,1.9221 4.293149,4.29314 z"
       transform="translate(192.05525,110.99051)" />
    <path
       sodipodi:type="arc"
       style="fill:#3809ff;fill-opacity:1;stroke:#cccccc;stroke-width:0.047;stroke-miterlimit:4;stroke-opacity:1;stroke-dasharray:none"
       id="path4118-1-7-5"
       sodipodi:cx="78.53936"
       sodipodi:cy="188.42921"
       sodipodi:rx="4.2931485"
       sodipodi:ry="4.2931485"
       d="m 82.832509,188.42921 c 0,2.37104 -1.922108,4.29315 -4.293149,4.29315 -2.37104,0 -4.293148,-1.92211 -4.293148,-4.29315 0,-2.37104 1.922108,-4.29314 4.293148,-4.29314 2.371041,0 4.293149,1.9221 4.293149,4.29314 z"
       transform="translate(239.02735,110.48544)" />
    <path
       sodipodi:type="arc"
       style="fill:#3809ff;fill-opacity:1;stroke:#cccccc;stroke-width:0.047;stroke-miterlimit:4;stroke-opacity:1;stroke-dasharray:none"
       id="path4118-8-1-21"
       sodipodi:cx="78.53936"
       sodipodi:cy="188.42921"
       sodipodi:rx="4.2931485"
       sodipodi:ry="4.2931485"
       d="m 82.832509,188.42921 c 0,2.37104 -1.922108,4.29315 -4.293149,4.29315 -2.37104,0 -4.293148,-1.92211 -4.293148,-4.29315 0,-2.37104 1.922108,-4.29314 4.293148,-4.29314 2.371041,0 4.293149,1.9221 4.293149,4.29314 z"
       transform="translate(284.9893,111.49559)" />
    <path
       sodipodi:type="arc"
       style="fill:#3809ff;fill-opacity:1;stroke:#cccccc;stroke-width:0.047;stroke-miterlimit:4;stroke-opacity:1;stroke-dasharray:none"
       id="path4118-9-3-9"
       sodipodi:cx="78.53936"
       sodipodi:cy="188.42921"
       sodipodi:rx="4.2931485"
       sodipodi:ry="4.2931485"
       d="m 82.832509,188.42921 c 0,2.37104 -1.922108,4.29315 -4.293149,4.29315 -2.37104,0 -4.293148,-1.92211 -4.293148,-4.29315 0,-2.37104 1.922108,-4.29314 4.293148,-4.29314 2.371041,0 4.293149,1.9221 4.293149,4.29314 z"
       transform="translate(329.43601,110.99051)" />
    <path
       sodipodi:type="arc"
       style="fill:#3809ff;fill-opacity:1;stroke:#cccccc;stroke-width:0.047;stroke-miterlimit:4;stroke-opacity:1;stroke-dasharray:none"
       id="path4118-7-8-6"
       sodipodi:cx="78.53936"
       sodipodi:cy="188.42921"
       sodipodi:rx="4.2931485"
       sodipodi:ry="4.2931485"
       d="m 82.832509,188.42921 c 0,2.37104 -1.922108,4.29315 -4.293149,4.29315 -2.37104,0 -4.293148,-1.92211 -4.293148,-4.29315 0,-2.37104 1.922108,-4.29314 4.293148,-4.29314 2.371041,0 4.293149,1.9221 4.293149,4.29314 z"
       transform="translate(378.42841,110.99051)" />
    <path
       sodipodi:type="arc"
       style="fill:#3809ff;fill-opacity:1;stroke:#cccccc;stroke-width:0.047;stroke-miterlimit:4;stroke-opacity:1;stroke-dasharray:none"
       id="path4118-88-9"
       sodipodi:cx="78.53936"
       sodipodi:cy="188.42921"
       sodipodi:rx="4.2931485"
       sodipodi:ry="4.2931485"
       d="m 82.832509,188.42921 c 0,2.37104 -1.922108,4.29315 -4.293149,4.29315 -2.37104,0 -4.293148,-1.92211 -4.293148,-4.29315 0,-2.37104 1.922108,-4.29314 4.293148,-4.29314 2.371041,0 4.293149,1.9221 4.293149,4.29314 z"
       transform="translate(105.93975,156.19484)" />
    <path
       sodipodi:type="arc"
       style="fill:#3809ff;fill-opacity:1;stroke:#cccccc;stroke-width:0.047;stroke-miterlimit:4;stroke-opacity:1;stroke-dasharray:none"
       id="path4118-6-4-6"
       sodipodi:cx="78.53936"
       sodipodi:cy="188.42921"
       sodipodi:rx="4.2931485"
       sodipodi:ry="4.2931485"
       d="m 82.832509,188.42921 c 0,2.37104 -1.922108,4.29315 -4.293149,4.29315 -2.37104,0 -4.293148,-1.92211 -4.293148,-4.29315 0,-2.37104 1.922108,-4.29314 4.293148,-4.29314 2.371041,0 4.293149,1.9221 4.293149,4.29314 z"
       transform="translate(146.09332,156.95246)" />
    <path
       sodipodi:type="arc"
       style="fill:#3809ff;fill-opacity:1;stroke:#cccccc;stroke-width:0.047;stroke-miterlimit:4;stroke-opacity:1;stroke-dasharray:none"
       id="path4118-5-8-9"
       sodipodi:cx="78.53936"
       sodipodi:cy="188.42921"
       sodipodi:rx="4.2931485"
       sodipodi:ry="4.2931485"
       d="m 82.832509,188.42921 c 0,2.37104 -1.922108,4.29315 -4.293149,4.29315 -2.37104,0 -4.293148,-1.92211 -4.293148,-4.29315 0,-2.37104 1.922108,-4.29314 4.293148,-4.29314 2.371041,0 4.293149,1.9221 4.293149,4.29314 z"
       transform="translate(193.06541,156.95246)" />
    <path
       sodipodi:type="arc"
       style="fill:#3809ff;fill-opacity:1;stroke:#cccccc;stroke-width:0.047;stroke-miterlimit:4;stroke-opacity:1;stroke-dasharray:none"
       id="path4118-1-7-6"
       sodipodi:cx="78.53936"
       sodipodi:cy="188.42921"
       sodipodi:rx="4.2931485"
       sodipodi:ry="4.2931485"
       d="m 82.832509,188.42921 c 0,2.37104 -1.922108,4.29315 -4.293149,4.29315 -2.37104,0 -4.293148,-1.92211 -4.293148,-4.29315 0,-2.37104 1.922108,-4.29314 4.293148,-4.29314 2.371041,0 4.293149,1.9221 4.293149,4.29314 z"
       transform="translate(240.03751,156.44739)" />
    <path
       sodipodi:type="arc"
       style="fill:#3809ff;fill-opacity:1;stroke:#cccccc;stroke-width:0.047;stroke-miterlimit:4;stroke-opacity:1;stroke-dasharray:none"
       id="path4118-8-1-6"
       sodipodi:cx="78.53936"
       sodipodi:cy="188.42921"
       sodipodi:rx="4.2931485"
       sodipodi:ry="4.2931485"
       d="m 82.832509,188.42921 c 0,2.37104 -1.922108,4.29315 -4.293149,4.29315 -2.37104,0 -4.293148,-1.92211 -4.293148,-4.29315 0,-2.37104 1.922108,-4.29314 4.293148,-4.29314 2.371041,0 4.293149,1.9221 4.293149,4.29314 z"
       transform="translate(285.99945,157.45754)" />
    <path
       sodipodi:type="arc"
       style="fill:#3809ff;fill-opacity:1;stroke:#cccccc;stroke-width:0.047;stroke-miterlimit:4;stroke-opacity:1;stroke-dasharray:none"
       id="path4118-9-3-2"
       sodipodi:cx="78.53936"
       sodipodi:cy="188.42921"
       sodipodi:rx="4.2931485"
       sodipodi:ry="4.2931485"
       d="m 82.832509,188.42921 c 0,2.37104 -1.922108,4.29315 -4.293149,4.29315 -2.37104,0 -4.293148,-1.92211 -4.293148,-4.29315 0,-2.37104 1.922108,-4.29314 4.293148,-4.29314 2.371041,0 4.293149,1.9221 4.293149,4.29314 z"
       transform="translate(330.44616,156.95246)" />
    <path
       sodipodi:type="arc"
       style="fill:#3809ff;fill-opacity:1;stroke:#cccccc;stroke-width:0.047;stroke-miterlimit:4;stroke-opacity:1;stroke-dasharray:none"
       id="path4118-7-8-9"
       sodipodi:cx="78.53936"
       sodipodi:cy="188.42921"
       sodipodi:rx="4.2931485"
       sodipodi:ry="4.2931485"
       d="m 82.832509,188.42921 c 0,2.37104 -1.922108,4.29315 -4.293149,4.29315 -2.37104,0 -4.293148,-1.92211 -4.293148,-4.29315 0,-2.37104 1.922108,-4.29314 4.293148,-4.29314 2.371041,0 4.293149,1.9221 4.293149,4.29314 z"
       transform="translate(379.43856,156.95246)" />
  </g>
</svg>
